REM DIRINDEX 1\2\4,1\2\5,1\2\6,1\3\7,1\3\8,1\3\9,1\3\10
REM DIRNAME cjc057,folder01,folder02,folder03,folder04,folder05,folder06,folder07,folder08,folder09
TITLE ""
FILE "a_137.mp3" MP3
  TRACK 01 AUDIO
    TITLE "0:"
    INDEX 01 00:00:00
  TRACK 02 AUDIO
    TITLE "4:cjc057_03014"
    INDEX 01 00:00:15
  TRACK 03 AUDIO
    TITLE "0:"
    INDEX 01 00:01:38
  TRACK 04 AUDIO
    TITLE "5:cjc057_03015"
    INDEX 01 00:01:68
  TRACK 05 AUDIO
    TITLE "0:"
    INDEX 01 00:04:38
  TRACK 06 AUDIO
    TITLE "4:cjc057_03016"
    INDEX 01 00:05:42
  TRACK 07 AUDIO
    TITLE "0:"
    INDEX 01 00:06:61
  TRACK 08 AUDIO
    TITLE "5:cjc057_03017"
    INDEX 01 00:07:15
  TRACK 09 AUDIO
    TITLE "0:"
    INDEX 01 00:10:27
  TRACK 10 AUDIO
    TITLE "4:cjc057_03018"
    INDEX 01 00:11:29
  TRACK 11 AUDIO
    TITLE "0:"
    INDEX 01 00:12:60
  TRACK 12 AUDIO
    TITLE "5:cjc057_03019"
    INDEX 01 00:13:14
  TRACK 13 AUDIO
    TITLE "0:"
    INDEX 01 00:14:09
  TRACK 14 AUDIO
    TITLE "4:cjc057_03020"
    INDEX 01 00:15:13
  TRACK 15 AUDIO
    TITLE "0:"
    INDEX 01 00:16:20
  TRACK 16 AUDIO
    TITLE "5:cjc057_03021"
    INDEX 01 00:16:49
  TRACK 17 AUDIO
    TITLE "0:"
    INDEX 01 00:18:01
  TRACK 18 AUDIO
    TITLE "4:cjc057_03022"
    INDEX 01 00:19:05
  TRACK 19 AUDIO
    TITLE "0:"
    INDEX 01 00:20:37
  TRACK 20 AUDIO
    TITLE "5:cjc057_03023"
    INDEX 01 00:20:67
  TRACK 21 AUDIO
    TITLE "0:"
    INDEX 01 00:23:24
  TRACK 22 AUDIO
    TITLE "4:cjc057_03024"
    INDEX 01 00:24:29
  TRACK 23 AUDIO
    TITLE "0:"
    INDEX 01 00:25:37
  TRACK 24 AUDIO
    TITLE "5:cjc057_03025"
    INDEX 01 00:25:68
  TRACK 25 AUDIO
    TITLE "0:"
    INDEX 01 00:28:45
  TRACK 26 AUDIO
    TITLE "4:cjc057_03026"
    INDEX 01 00:29:46
  TRACK 27 AUDIO
    TITLE "0:"
    INDEX 01 00:31:12
  TRACK 28 AUDIO
    TITLE "5:cjc057_03027"
    INDEX 01 00:31:43
  TRACK 29 AUDIO
    TITLE "0:"
    INDEX 01 00:34:00
  TRACK 30 AUDIO
    TITLE "4:cjc057_03028"
    INDEX 01 00:35:06
  TRACK 31 AUDIO
    TITLE "0:"
    INDEX 01 00:36:31
  TRACK 32 AUDIO
    TITLE "5:cjc057_03029"
    INDEX 01 00:36:62
  TRACK 33 AUDIO
    TITLE "0:"
    INDEX 01 00:39:09
  TRACK 34 AUDIO
    TITLE "4:cjc057_03030"
    INDEX 01 00:40:13
  TRACK 35 AUDIO
    TITLE "0:"
    INDEX 01 00:41:26
  TRACK 36 AUDIO
    TITLE "5:cjc057_03031"
    INDEX 01 00:41:55
  TRACK 37 AUDIO
    TITLE "0:"
    INDEX 01 00:42:74
  TRACK 38 AUDIO
    TITLE "4:cjc057_03032"
    INDEX 01 00:44:03
  TRACK 39 AUDIO
    TITLE "0:"
    INDEX 01 00:45:35
  TRACK 40 AUDIO
    TITLE "5:cjc057_03033"
    INDEX 01 00:45:65
  TRACK 41 AUDIO
    TITLE "0:"
    INDEX 01 00:47:68
  TRACK 42 AUDIO
    TITLE "4:cjc057_03034"
    INDEX 01 00:48:73
  TRACK 43 AUDIO
    TITLE "0:"
    INDEX 01 00:50:23
  TRACK 44 AUDIO
    TITLE "5:cjc057_03035"
    INDEX 01 00:50:52
  TRACK 45 AUDIO
    TITLE "0:"
    INDEX 01 00:52:00
  TRACK 46 AUDIO
    TITLE "4:cjc057_03036"
    INDEX 01 00:53:04
  TRACK 47 AUDIO
    TITLE "0:"
    INDEX 01 00:54:23
  TRACK 48 AUDIO
    TITLE "5:cjc057_03037"
    INDEX 01 00:54:52
  TRACK 49 AUDIO
    TITLE "0:"
    INDEX 01 00:55:69
  TRACK 50 AUDIO
    TITLE "4:cjc057_03038"
    INDEX 01 00:56:72
  TRACK 51 AUDIO
    TITLE "0:"
    INDEX 01 00:58:24
  TRACK 52 AUDIO
    TITLE "5:cjc057_03039"
    INDEX 01 00:58:54
  TRACK 53 AUDIO
    TITLE "0:"
    INDEX 01 01:02:18
  TRACK 54 AUDIO
    TITLE "4:cjc057_03040"
    INDEX 01 01:03:22
  TRACK 55 AUDIO
    TITLE "0:"
    INDEX 01 01:04:52
  TRACK 56 AUDIO
    TITLE "5:cjc057_03041"
    INDEX 01 01:05:07
  TRACK 57 AUDIO
    TITLE "0:"
    INDEX 01 01:08:64
  TRACK 58 AUDIO
    TITLE "4:cjc057_03042"
    INDEX 01 01:09:65
  TRACK 59 AUDIO
    TITLE "0:"
    INDEX 01 01:11:15
  TRACK 60 AUDIO
    TITLE "5:cjc057_03043"
    INDEX 01 01:11:45
  TRACK 61 AUDIO
    TITLE "0:"
    INDEX 01 01:14:47
  TRACK 62 AUDIO
    TITLE "4:cjc057_03044"
    INDEX 01 01:15:50
  TRACK 63 AUDIO
    TITLE "0:"
    INDEX 01 01:16:61
  TRACK 64 AUDIO
    TITLE "5:cjc057_03045"
    INDEX 01 01:17:14
  TRACK 65 AUDIO
    TITLE "0:"
    INDEX 01 01:19:11
  TRACK 66 AUDIO
    TITLE "4:cjc057_03046"
    INDEX 01 01:20:14
  TRACK 67 AUDIO
    TITLE "0:"
    INDEX 01 01:21:37
  TRACK 68 AUDIO
    TITLE "5:cjc057_03047"
    INDEX 01 01:21:67
  TRACK 69 AUDIO
    TITLE "0:"
    INDEX 01 01:23:03
  TRACK 70 AUDIO
    TITLE "4:cjc057_03048"
    INDEX 01 01:24:08
  TRACK 71 AUDIO
    TITLE "0:"
    INDEX 01 01:25:25
  TRACK 72 AUDIO
    TITLE "5:cjc057_03049"
    INDEX 01 01:25:55
  TRACK 73 AUDIO
    TITLE "0:"
    INDEX 01 01:26:72
  TRACK 74 AUDIO
    TITLE "4:cjc057_03050"
    INDEX 01 01:28:02
  TRACK 75 AUDIO
    TITLE "0:"
    INDEX 01 01:29:17
  TRACK 76 AUDIO
    TITLE "5:cjc057_03051"
    INDEX 01 01:29:46
  TRACK 77 AUDIO
    TITLE "0:"
    INDEX 01 01:31:47
  TRACK 78 AUDIO
    TITLE "4:cjc057_03052"
    INDEX 01 01:32:53
  TRACK 79 AUDIO
    TITLE "0:"
    INDEX 01 01:33:64
  TRACK 80 AUDIO
    TITLE "5:cjc057_03053"
    INDEX 01 01:34:16
  TRACK 81 AUDIO
    TITLE "0:"
    INDEX 01 01:35:35
  TRACK 82 AUDIO
    TITLE "4:cjc057_03054"
    INDEX 01 01:36:41
  TRACK 83 AUDIO
    TITLE "0:"
    INDEX 01 01:37:64
  TRACK 84 AUDIO
    TITLE "5:cjc057_03055"
    INDEX 01 01:38:16
  TRACK 85 AUDIO
    TITLE "0:"
    INDEX 01 01:41:46
  TRACK 86 AUDIO
    TITLE "4:cjc057_03056"
    INDEX 01 01:42:51
  TRACK 87 AUDIO
    TITLE "0:"
    INDEX 01 01:44:01
  TRACK 88 AUDIO
    TITLE "5:cjc057_03057"
    INDEX 01 01:44:30
  TRACK 89 AUDIO
    TITLE "0:"
    INDEX 01 01:45:28
  TRACK 90 AUDIO
    TITLE "4:cjc057_03058"
    INDEX 01 01:46:31
  TRACK 91 AUDIO
    TITLE "0:"
    INDEX 01 01:47:70
  TRACK 92 AUDIO
    TITLE "5:cjc057_03059"
    INDEX 01 01:48:22
  TRACK 93 AUDIO
    TITLE "0:"
    INDEX 01 01:51:09
  TRACK 94 AUDIO
    TITLE "4:cjc057_03060"
    INDEX 01 01:52:14
  TRACK 95 AUDIO
    TITLE "0:"
    INDEX 01 01:53:49
  TRACK 96 AUDIO
    TITLE "5:cjc057_03061"
    INDEX 01 01:54:03
  TRACK 97 AUDIO
    TITLE "0:"
    INDEX 01 01:56:02
  TRACK 98 AUDIO
    TITLE "4:cjc057_03062"
    INDEX 01 01:57:06
  TRACK 99 AUDIO
    TITLE "0:"
    INDEX 01 01:58:40
  TRACK 100 AUDIO
    TITLE "5:cjc057_03063"
    INDEX 01 01:58:70
  TRACK 101 AUDIO
    TITLE "0:"
    INDEX 01 02:00:24
  TRACK 102 AUDIO
    TITLE "4:cjc057_03064"
    INDEX 01 02:01:29
  TRACK 103 AUDIO
    TITLE "0:"
    INDEX 01 02:02:40
  TRACK 104 AUDIO
    TITLE "5:cjc057_03065"
    INDEX 01 02:02:69
  TRACK 105 AUDIO
    TITLE "0:"
    INDEX 01 02:05:17
  TRACK 106 AUDIO
    TITLE "4:cjc057_03066"
    INDEX 01 02:06:20
  TRACK 107 AUDIO
    TITLE "0:"
    INDEX 01 02:07:43
  TRACK 108 AUDIO
    TITLE "5:cjc057_03067"
    INDEX 01 02:07:73
  TRACK 109 AUDIO
    TITLE "0:"
    INDEX 01 02:12:35
  TRACK 110 AUDIO
    TITLE "4:cjc057_03068"
    INDEX 01 02:13:38
  TRACK 111 AUDIO
    TITLE "0:"
    INDEX 01 02:14:47
  TRACK 112 AUDIO
    TITLE "5:cjc057_03069"
    INDEX 01 02:15:02
  TRACK 113 AUDIO
    TITLE "0:"
    INDEX 01 02:18:25
